<!DOCTYPE svg PUBLIC "-//W3C//DTD SVG 1.1//EN" "http://www.w3.org/Graphics/SVG/1.1/DTD/svg11.dtd">
<!-- Uploaded to: SVG Repo, www.svgrepo.com, Transformed by: SVG Repo Mixer Tools -->
<svg fill="#f2e844" width="800px" height="800px" viewBox="-2.4 -2.4 28.80 28.80" xmlns="http://www.w3.org/2000/svg" stroke="#f2e844" stroke-width="0.00024000000000000003">

<g id="SVGRepo_bgCarrier" stroke-width="0">

<rect x="-2.4" y="-2.4" width="28.80" height="28.80" rx="2.3040000000000003" fill="#197abf" strokewidth="0"/>

</g>

<g id="SVGRepo_tracerCarrier" stroke-linecap="round" stroke-linejoin="round"/>

<g id="SVGRepo_iconCarrier">

<path d="M21,3H3A2,2,0,0,0,1,5v7a2,2,0,0,0,2,2H21a2,2,0,0,0,2-2V5A2,2,0,0,0,21,3Zm0,9H3V5H21ZM5,10A1,1,0,0,1,6,9H18a1,1,0,0,1,0,2H6A1,1,0,0,1,5,10ZM16,7a1,1,0,0,1,1-1h1a1,1,0,0,1,0,2H17A1,1,0,0,1,16,7ZM9.793,20.293,11.086,19l-.293-.293a1,1,0,0,1,0-1.414l2-2a1,1,0,0,1,1.414,1.414L12.914,18l.293.293a1,1,0,0,1,0,1.414l-2,2a1,1,0,0,1-1.414-1.414Zm5.5,0L16.586,19l-.293-.293a1,1,0,0,1,0-1.414l2-2a1,1,0,0,1,1.414,1.414L18.414,18l.293.293a1,1,0,0,1,0,1.414l-2,2a1,1,0,0,1-1.414-1.414Zm-11,0L5.586,19l-.293-.293a1,1,0,0,1,0-1.414l2-2a1,1,0,0,1,1.414,1.414L7.414,18l.293.293a1,1,0,0,1,0,1.414l-2,2a1,1,0,0,1-1.414-1.414Z"/>

</g>

</svg>